# xmcd CD database file
#
# Track frame offsets:
#	150
#	14475
#	25994
#	38564
#	50195
#	65666
#	79519
#	93969
#	108020
#	117792
#	131222
#	144263
#	157690
#	169276
#	182979
#	195226
#
# Disc length: 2800 seconds
#
# Revision: 0
# Processed by: cddbd v1.5.2PL0 Copyright (c) Steve Scherf et al.
# Submitted via: CDex 1.70beta2
#
DISCID=cc0aee10
DTITLE=Doris Day - Sentimental Journey
DYEAR=2007
DGENRE=Jazz
TTITLE0=Sentimental Journey
TTITLE1=My Darling, My Darling
TTITLE2=Again
TTITLE3=Powder Your Face With Sunshine (Smile, Smile, Smile!)
TTITLE4=It's Magic
TTITLE5=Come To Baby, Do!
TTITLE6=Sooner Or Later
TTITLE7=Day By Day
TTITLE8=Hoop-Dee-Doo
TTITLE9=Confess
TTITLE10=I Didn't Slip, I Wasn't Pushed, I Fell
TTITLE11=Till The End Of Time
TTITLE12=I Got The Sun In The Morning
TTITLE13=Love Somebody
TTITLE14=Bewitched, Bothered And Bewildered
TTITLE15=My Dreams Are Getting Better All The Time
EXTD=YEAR: 2007
EXTT0=
EXTT1=
EXTT2=
EXTT3=
EXTT4=
EXTT5=
EXTT6=
EXTT7=
EXTT8=
EXTT9=
EXTT10=
EXTT11=
EXTT12=
EXTT13=
EXTT14=
EXTT15=
PLAYORDER=
